<?xml version="1.0" standalone="no"?>
<!DOCTYPE svg PUBLIC "-//W3C//DTD SVG 20010904//EN"
 "http://www.w3.org/TR/2001/REC-SVG-20010904/DTD/svg10.dtd">
<svg version="1.0" xmlns="http://www.w3.org/2000/svg"
 width="672.000000pt" height="672.000000pt" viewBox="0 0 672.000000 672.000000"
 preserveAspectRatio="xMidYMid meet">
<metadata>
Created by potrace 1.14, written by Peter Selinger 2001-2017
</metadata>
<g transform="translate(0.000000,672.000000) scale(0.100000,-0.100000)"
fill="#000000" stroke="none">
<path d="M3335 6503 c-11 -26 -20 -50 -20 -53 -1 -3 -8 -21 -17 -40 -9 -19
-45 -100 -78 -180 -34 -80 -67 -156 -73 -170 -6 -14 -11 -27 -12 -30 -5 -15
-21 -52 -46 -108 -16 -35 -29 -65 -29 -68 0 -4 -119 -286 -162 -384 -11 -25
-24 -54 -28 -65 -4 -11 -17 -41 -29 -67 -12 -26 -21 -50 -21 -52 0 -3 -13 -34
-30 -69 -16 -36 -30 -71 -30 -79 0 -8 -4 -18 -8 -23 -5 -6 -25 -50 -47 -100
-21 -49 -48 -113 -61 -142 -13 -28 -24 -54 -24 -57 0 -2 -5 -17 -11 -33 -6
-15 -10 -30 -9 -32 1 -2 -2 -7 -7 -10 -4 -3 -19 -33 -32 -66 -13 -33 -32 -78
-42 -100 -10 -22 -27 -61 -38 -87 -11 -27 -26 -48 -33 -49 -7 -1 -24 -2 -38
-4 -14 -1 -61 -5 -105 -9 -73 -6 -104 -9 -245 -21 -25 -2 -76 -6 -115 -9 -38
-3 -92 -8 -120 -11 -105 -10 -162 -15 -235 -21 -41 -3 -88 -7 -105 -9 -16 -1
-68 -6 -115 -10 -47 -3 -101 -8 -120 -10 -19 -2 -73 -6 -120 -10 -47 -3 -110
-8 -140 -11 -101 -9 -134 -12 -215 -19 -44 -3 -100 -8 -125 -10 -77 -8 -162
-15 -225 -21 -160 -13 -202 -16 -225 -19 -14 -2 -29 -4 -35 -4 -5 -1 -4 -5 3
-9 15 -10 94 -76 132 -112 15 -14 46 -41 70 -60 24 -19 51 -42 59 -51 9 -8 66
-57 126 -109 61 -52 112 -97 115 -100 7 -7 210 -182 239 -206 12 -10 37 -32
54 -48 17 -15 84 -73 149 -129 65 -55 118 -104 118 -109 0 -4 6 -8 14 -8 8 0
16 -3 18 -7 1 -5 39 -39 83 -78 44 -38 82 -72 85 -75 3 -3 32 -28 65 -56 88
-74 113 -96 148 -127 18 -16 65 -56 105 -90 39 -34 72 -65 72 -69 0 -4 4 -8 9
-8 14 0 81 -62 75 -71 -2 -4 -8 -27 -13 -51 -15 -69 -45 -200 -91 -393 -23
-99 -46 -196 -50 -215 -5 -19 -11 -44 -13 -55 -15 -57 -48 -203 -51 -220 -1
-11 -6 -29 -9 -40 -3 -11 -8 -31 -11 -45 -6 -32 -9 -45 -35 -155 -12 -49 -31
-128 -41 -175 -11 -47 -27 -114 -35 -150 -9 -36 -18 -76 -21 -90 -3 -14 -7
-33 -10 -42 -3 -9 -7 -25 -9 -35 -2 -10 -11 -49 -20 -88 -9 -38 -20 -88 -25
-110 -5 -22 -12 -50 -15 -62 -3 -13 -7 -32 -10 -44 -2 -11 -6 -28 -9 -37 -3
-9 -8 -29 -11 -44 -9 -48 -15 -74 -34 -150 -5 -21 -6 -36 -2 -34 37 19 138 83
143 91 4 5 8 6 8 1 0 -5 8 -2 18 6 9 8 114 73 232 144 118 71 217 132 218 137
2 4 8 7 14 7 6 0 41 19 77 42 36 23 75 47 86 53 30 16 216 128 345 207 63 39
124 76 135 82 72 41 223 132 235 141 8 7 35 23 60 36 25 13 49 27 55 32 34 26
85 55 85 49 0 -4 4 -2 8 3 4 6 62 44 130 84 l123 74 101 -62 c55 -33 105 -61
109 -61 5 0 9 -4 9 -9 0 -5 11 -12 25 -15 14 -4 25 -11 25 -16 0 -6 4 -10 10
-10 5 0 41 -20 80 -45 39 -25 73 -45 76 -45 3 0 26 -13 51 -30 24 -16 48 -30
54 -30 5 0 9 -4 9 -10 0 -5 4 -10 9 -10 5 0 69 -36 143 -81 73 -44 140 -84
148 -89 8 -5 76 -46 150 -91 74 -45 149 -90 165 -99 17 -9 100 -60 185 -112
85 -52 162 -97 170 -101 8 -4 35 -21 60 -37 25 -17 57 -36 73 -42 15 -7 27
-16 27 -20 0 -4 4 -8 9 -8 5 0 58 -30 117 -66 60 -36 123 -75 140 -85 l32 -19
-9 37 c-23 95 -52 220 -55 238 -8 41 -32 140 -37 155 -4 8 -8 29 -11 45 -8 50
-16 89 -23 110 -4 11 -8 25 -9 30 -2 11 -57 246 -106 455 -16 69 -31 135 -34
147 -4 23 -82 357 -116 498 -10 44 -21 91 -24 105 -3 14 -10 43 -15 65 -5 22
-11 49 -14 60 -2 11 -11 49 -20 85 -9 36 -18 74 -19 86 -2 11 -5 25 -8 30 -4
5 -9 32 -13 61 -5 44 -3 53 14 65 17 12 110 92 177 153 12 11 43 38 70 60 71
60 116 98 134 115 8 8 45 40 80 70 36 30 78 67 95 82 16 14 39 35 51 45 84 73
151 131 170 148 12 11 44 38 70 60 27 22 69 58 94 81 44 39 310 269 359 309
13 11 31 27 40 36 9 9 50 45 91 80 117 100 121 103 145 124 12 11 47 42 78 70
32 27 57 52 57 55 0 3 -24 6 -53 8 -28 1 -72 5 -97 8 -25 3 -70 7 -100 9 -74
5 -175 13 -230 20 -25 2 -76 7 -115 10 -38 2 -92 7 -120 10 -45 5 -92 9 -245
20 -25 2 -73 6 -107 9 -35 3 -91 8 -125 11 -35 3 -85 7 -113 11 -27 3 -79 7
-115 9 -36 2 -87 7 -115 9 -27 3 -86 8 -130 12 -44 3 -93 7 -110 9 -94 9 -167
16 -220 20 -184 15 -232 19 -287 24 -5 1 -17 22 -29 49 -11 26 -26 61 -34 77
-7 17 -37 86 -66 155 -28 69 -59 141 -67 160 -9 19 -16 37 -17 40 -1 3 -9 23
-19 45 -10 22 -27 62 -38 90 -11 27 -30 73 -44 103 -13 29 -24 55 -24 57 0 2
-11 28 -24 57 -13 29 -40 94 -61 143 -37 89 -67 161 -85 200 -5 11 -21 49 -36
85 -14 36 -34 83 -45 106 -10 22 -27 65 -39 94 -12 29 -29 72 -39 94 -10 23
-42 97 -71 166 -29 69 -64 150 -77 180 -35 79 -39 89 -64 153 -12 31 -25 57
-29 57 -3 0 -15 -21 -25 -47z"/>
</g>
</svg>
