<svg width="14" height="13" viewBox="0 0 14 13" fill="none" xmlns="http://www.w3.org/2000/svg">
<path d="M12.5003 12.5C12.8649 12.5 13.2147 12.3551 13.4725 12.0973C13.7304 11.8394 13.8753 11.4897 13.8753 11.125V7.76725C13.8753 7.40258 13.7304 7.05284 13.4725 6.79498C13.2147 6.53712 12.8649 6.39225 12.5003 6.39225H10.5918C10.5918 5.90917 10.6202 5.42608 10.677 4.943C10.7622 4.4315 10.9043 3.97683 11.1033 3.579C11.3022 3.18117 11.5584 2.86812 11.8719 2.63987C12.1835 2.38412 12.5814 2.25625 13.0654 2.25625V0.125C12.2697 0.125 11.573 0.2955 10.9754 0.6365C10.3818 0.973203 9.8719 1.43944 9.4835 2.0005C9.09247 2.61808 8.80454 3.29518 8.631 4.00525C8.45553 4.78865 8.36973 5.58946 8.37525 6.39225V11.125C8.37525 11.4897 8.52012 11.8394 8.77798 12.0973C9.03584 12.3551 9.38558 12.5 9.75025 12.5H12.5003ZM4.25025 12.5C4.61492 12.5 4.96466 12.3551 5.22252 12.0973C5.48038 11.8394 5.62525 11.4897 5.62525 11.125V7.76725C5.62525 7.40258 5.48038 7.05284 5.22252 6.79498C4.96466 6.53712 4.61492 6.39225 4.25025 6.39225H2.34175C2.34175 5.90917 2.37017 5.42608 2.427 4.943C2.51317 4.4315 2.65525 3.97683 2.85325 3.579C3.05217 3.18117 3.30838 2.86812 3.62188 2.63987C3.93354 2.38412 4.33138 2.25625 4.81538 2.25625V0.125C4.01971 0.125 3.32304 0.2955 2.72538 0.6365C2.13185 0.973203 1.6219 1.43944 1.2335 2.0005C0.842465 2.61808 0.554536 3.29518 0.381001 4.00525C0.205528 4.78865 0.119727 5.58946 0.125251 6.39225V11.125C0.125251 11.4897 0.270116 11.8394 0.527979 12.0973C0.785841 12.3551 1.13558 12.5 1.50025 12.5H4.25025Z" fill="#E6E6E6"/>
</svg>
